<svg width="129" height="35" viewBox="0 0 129 35" fill="none" xmlns="http://www.w3.org/2000/svg"><g filter="url(#filter0_d_1_3)"><rect x="5" width="118.75" height="25" rx="12.5" fill="#F3ECE1"/></g><path d="M19.4469 16.3875c-1.0634 0-1.948-.2108-2.6538-.6325-.7058-.4217-1.2329-1.0083-1.5812-1.76-.3484-.7608-.5225-1.65-.5225-2.6675 0-.99.1787-1.86083.5362-2.6125.3575-.76083.8846-1.35208 1.5813-1.77375.7058-.43083 1.5812-.64625 2.6262-.64625 1.0542 0 1.8379.15583 2.3513.4675.5225.3025.7837.67833.7837 1.1275 0 .34833-.1467.63708-.44.86625-.2933.22-.7196.33-1.2787.33 0-.3025-.0459-.60042-.1375-.89375-.0917-.29333-.2521-.53625-.4813-.72875-.22-.1925-.5179-.28875-.8937-.28875-.8709 0-1.4805.36208-1.8288 1.08625-.3392.715-.5087 1.73708-.5087 3.06625 0 1.3292.2062 2.3237.6187 2.9837.4217.6509 1.1413.9763 2.1588.9763.4491 0 .8341-.0642 1.155-.1925.3208-.1375.5912-.3025.8112-.495.2292-.2017.4217-.4079.5775-.6188.1558.1284.2338.3255.2338.5913 0 .2567-.0963.5271-.2888.8112-.1925.275-.5179.5134-.9762.715-.4492.1926-1.0634.2888-1.8425.2888zm7.8645 0c-1.1 0-1.9662-.3163-2.5987-.9488-.6325-.6416-.9488-1.6087-.9488-2.9012 0-1.2925.3025-2.255.9075-2.8875.605-.6325 1.4988-.94875 2.6813-.94875 1.1 0 1.9662.31625 2.5987.94875.6325.6325.9488 1.595.9488 2.8875 0 1.2925-.3071 2.2596-.9213 2.9012-.605.6325-1.4941.9488-2.6675.9488zm.0275-.8663c.5317 0 .9029-.252 1.1138-.7562.2108-.5133.3162-1.2558.3162-2.2275 0-.9808-.11-1.7188-.33-2.2138-.2108-.49495-.5821-.74245-1.1137-.74245-.5317 0-.9029.2475-1.1138.74245-.2108.495-.3162 1.233-.3162 2.2138 0 .9717.1054 1.7142.3162 2.2275.22.5042.5959.7562 1.1275.7562zm4.4864.7288v-.7288h.0275c.3117 0 .5683-.055.77-.165.2017-.11.3025-.3712.3025-.7837v-4.07c0-.385-.0917-.62792-.275-.72875-.1742-.11-.4125-.165-.715-.165h-.0413V8.88h2.8875l.1788.97625h.0687c.1834-.33917.3805-.59125.5913-.75625.22-.165.4537-.27042.7012-.31625.2475-.055.518-.0825.8113-.0825.7058 0 1.2604.21083 1.6637.6325.4034.42167.605 1.09545.605 2.02125v3.19c0 .4217.0734.6921.22.8112.1559.11.3896.165.7013.165h.0412v.7288h-3.0525v-4.5238c0-.5958-.0825-1.0541-.2475-1.375-.165-.3208-.4491-.4812-.8525-.4812-.3025 0-.5408.10083-.715.3025-.1741.1925-.2979.4537-.3712.7837-.0733.3209-.11.6692-.11 1.045v2.6263c0 .385.0871.6325.2612.7425.1834.1008.4263.1512.7288.1512h.0412v.7288h-4.2212zm12.2374.1375c-.6142 0-1.1046-.1604-1.4713-.4813-.3666-.3208-.55-.8845-.55-1.6912v-4.4h-1.0312v-.70125c.2933 0 .5546-.055.7837-.165.2384-.11917.4263-.25667.5638-.4125.2842-.3025.495-.75625.6325-1.36125h1.1412V8.88h1.76v.935h-1.76v4.2625c0 .4125.0688.715.2063.9075.1467.1925.3804.2887.7012.2887.1834 0 .353-.0091.5088-.0275.165-.0275.3208-.0595.4675-.0962v.8937c-.1467.0642-.3896.1375-.7288.2201-.33.0825-.7379.1237-1.2237.1237zm5.0087 0c-.605 0-1.1183-.1833-1.54-.55-.4125-.3667-.6187-.9304-.6187-1.6913 0-.7425.2521-1.2925.7562-1.65.5134-.3575 1.288-.5545 2.3238-.5912l1.1275-.0413v-.7562c0-.4583-.0504-.8342-.1513-1.1275-.0916-.29333-.3254-.44-.7012-.44-.3483 0-.5913.14208-.7288.42625-.1283.28415-.1925.63705-.1925 1.05875-.6141 0-1.077-.0688-1.3887-.2063-.3117-.1375-.4675-.3758-.4675-.715 0-.33912.1283-.60953.385-.8112.2567-.20167.5958-.34833 1.0175-.44.4308-.10083.9075-.15125 1.43-.15125.9625 0 1.6821.17417 2.1587.5225.4859.34833.7288.95335.7288 1.81495v3.5063c0 .3758.0596.6325.1787.77.1192.1375.3346.2062.6463.2062h.055v.7288h-2.5575l-.2888-.9488h-.1237c-.2017.2475-.3942.4538-.5775.6188-.1742.1558-.3758.2704-.605.3438-.2292.0825-.5179.1237-.8663.1237zm.7563-1.0038c.3942 0 .7058-.1558.935-.4675.2383-.3208.3575-.7516.3575-1.2925v-1.0312l-.6188.0412c-.55.0275-.9304.1742-1.1412.44-.2108.2567-.3163.6325-.3163 1.1275 0 .7884.2613 1.1825.7838 1.1825zm8.7537 1.0038c-.6692 0-1.2604-.1192-1.7738-.3575-.5133-.2475-.9166-.6463-1.21-1.1963-.2841-.5591-.4262-1.3062-.4262-2.2412 0-.99.1467-1.7646.44-2.3238.3025-.56828.7058-.97162 1.21-1.20995.5133-.23833 1.0862-.3575 1.7187-.3575.8892 0 1.563.14208 2.0213.42625.4675.275.7012.61417.7012 1.0175 0 .2017-.0504.3896-.1512.5637-.0917.1742-.2658.3209-.5225.44-.2567.11-.6233.165-1.1.165 0-.3208-.0275-.6141-.0825-.88-.055-.2658-.1467-.4812-.275-.6462-.1283-.165-.3071-.2475-.5363-.2475-.2658 0-.4995.09167-.7012.275-.1925.17417-.3438.4858-.4538.935-.1008.44-.1512 1.0496-.1512 1.8287 0 .9259.1283 1.6225.385 2.09.2567.4584.6737.6875 1.2512.6875.4767 0 .8892-.1054 1.2375-.3162.3484-.22.6005-.4858.7563-.7975.11.0733.1925.165.2475.275.055.11.0825.2292.0825.3575 0 .2292-.0963.4629-.2888.7012-.1833.2292-.472.4217-.8662.5775-.3942.1559-.8983.2338-1.5125.2338zm6.536 0c-.6142 0-1.1046-.1604-1.4713-.4813-.3666-.3208-.55-.8845-.55-1.6912v-4.4h-1.0312v-.70125c.2933 0 .5546-.055.7837-.165.2384-.11917.4263-.25667.5638-.4125.2841-.3025.495-.75625.6325-1.36125h1.1412V8.88h1.76v.935h-1.76v4.2625c0 .4125.0688.715.2063.9075.1466.1925.3804.2887.7012.2887.1834 0 .3529-.0091.5088-.0275.165-.0275.3208-.0595.4675-.0962v.8937c-.1467.0642-.3896.1375-.7288.2201-.33.0825-.7379.1237-1.2237.1237zm6.4387 0c-1.1733 0-2.0625-.33-2.6675-.99-.5958-.66-.8937-1.5904-.8937-2.7913 0-1.2925.2933-2.2641.88-2.91495.5958-.66 1.4391-.99 2.53-.99.9991 0 1.7829.27958 2.3512.83875.5775.5592.8663 1.3842.8663 2.475v.7013h-4.51c.0275.9258.1971 1.5995.5087 2.0212.3209.4125.7654.6187 1.3338.6187.4766 0 .88-.1054 1.21-.3162.33-.22.5729-.4858.7287-.7975.2475.1375.3713.3621.3713.6737 0 .3942-.22.738-.66 1.0313-.44.2933-1.1229.44-2.0488.44zm-1.4162-4.5513h2.3787c0-.7058-.0825-1.2558-.2475-1.65-.165-.39412-.4446-.5912-.8387-.5912-.385 0-.6921.1925-.9213.5775-.2291.385-.3529.9396-.3712 1.6637zm5.3115 4.4138v-.5638l4.0562-5.8712h-2.0075c-.2108 0-.3712.06875-.4812.2062-.11.1375-.2109.3896-.3025.7563l-.0825.33h-.825l.165-2.2275h5.94v.59125l-4.07 5.84375h2.42c.275 0 .4766-.0871.605-.2613.1283-.1741.2291-.4583.3025-.8525l.0825-.44h.8112l-.0687 2.4888h-6.545zm7.374-3.025v-1.4438h3.575v1.4438h-3.575zm4.1879 3.025v-.7288h.0275c.3116 0 .5683-.055.77-.165.2016-.11.3025-.3712.3025-.7837v-4.1113c0-.385-.0917-.62787-.275-.7287-.1742-.11-.4125-.165-.715-.165h-.0413V8.88h2.8875l.1788.97625h.0687c.1834-.33917.3804-.59125.5913-.75625.22-.165.4537-.27042.7012-.31625.2475-.055.5179-.0825.8113-.0825.5041 0 .935.09167 1.2925.275.3575.18333.6187.47667.7837.88h.1238c.1833-.33917.3896-.59125.6187-.75625.2292-.165.4767-.27042.7425-.31625.2659-.055.5409-.0825.825-.0825.7059 0 1.2604.21083 1.6638.6325.4033.42167.605 1.09545.605 2.02125v3.19c0 .4217.0733.6921.22.8112.1558.11.3896.165.7012.165h.0413v.7288h-3.0525v-4.5238c0-.5958-.0825-1.0541-.2475-1.375-.165-.3208-.4492-.4812-.8525-.4812-.2934 0-.5271.09167-.7013.275-.1741.1742-.3025.4125-.385.715-.0733.2933-.11.6187-.11.9762v2.7088c0 .4217.0734.6921.22.8112.1559.11.3896.165.7013.165h.0412v.7288h-3.0525v-4.5238c0-.5958-.0825-1.0541-.2475-1.375-.165-.3208-.4491-.4812-.8525-.4812-.3025 0-.5408.10083-.715.3025-.1741.1925-.2979.4537-.3712.7837-.0734.3209-.11.6692-.11 1.045v2.6263c0 .385.0871.6325.2612.7425.1834.1008.4263.1512.7288.1512h.0412v.7288h-4.2212zm17.4807.1375c-1.1 0-1.966-.3163-2.599-.9488-.632-.6416-.948-1.6087-.948-2.9012 0-1.2925.302-2.255.907-2.8875.605-.6325 1.499-.94875 2.681-.94875 1.1 0 1.967.31625 2.599.94875.633.6325.949 1.595.949 2.8875 0 1.2925-.307 2.2596-.921 2.9012-.605.6325-1.495.9488-2.668.9488zm.028-.8663c.531 0 .902-.252 1.113-.7562.211-.5133.317-1.2558.317-2.2275 0-.9808-.11-1.7188-.33-2.2138-.211-.49495-.583-.74245-1.114-.74245-.532 0-.903.2475-1.114.74245-.211.495-.316 1.233-.316 2.2138 0 .9717.105 1.7142.316 2.2275.22.5042.596.7562 1.128.7562zm6.562-7.8787c-.33 0-.609-.07792-.839-.23375-.22-.165-.33-.41708-.33-.75625 0-.34833.11-.60042.33-.75625.23-.15583.509-.23375.839-.23375.321 0 .596.07792.825.23375.238.15583.358.40792.358.75625 0 .33917-.12.59125-.358.75625-.229.15583-.504.23375-.825.23375zm-2.117 8.6075v-.7288h.165c.137 0 .279-.0183.426-.055.156-.0458.284-.1329.385-.2612.11-.1283.165-.3208.165-.5775v-4.18c0-.2383-.055-.4171-.165-.53625-.11-.12833-.243-.21083-.399-.2475-.147-.03667-.284-.055-.412-.055h-.165V8.88h3.231v5.7475c0 .2567.05.4492.151.5775.11.1283.238.2154.385.2612.156.0367.303.055.44.055h.165v.7288h-4.372z" fill="#000"/><defs><filter id="filter0_d_1_3" x="0" y="0" width="128.75" height="35" filterUnits="userSpaceOnUse" color-interpolation-filters="sRGB"><feFlood flood-opacity="0" result="BackgroundImageFix"/><feColorMatrix in="SourceAlpha" values="0 0 0 0 0 0 0 0 0 0 0 0 0 0 0 0 0 0 127 0" result="hardAlpha"/><feOffset dy="5"/><feGaussianBlur stdDeviation="2.5"/><feComposite in2="hardAlpha" operator="out"/><feColorMatrix values="0 0 0 0 0 0 0 0 0 0 0 0 0 0 0 0 0 0 0.25 0"/><feBlend in2="BackgroundImageFix" result="effect1_dropShadow_1_3"/><feBlend in="SourceGraphic" in2="effect1_dropShadow_1_3" result="shape"/></filter></defs></svg>