<svg width="129" height="35" viewBox="0 0 129 35" fill="none" xmlns="http://www.w3.org/2000/svg">
<g filter="url(#filter0_d_438_975)">
<rect x="5" width="118.75" height="25" rx="12.5" fill="#F3ECE1"/>
</g>
<path d="M32.1715 17.6375C31.1081 17.6375 30.2235 17.4267 29.5177 17.005C28.8119 16.5833 28.2848 15.9967 27.9365 15.245C27.5881 14.4842 27.414 13.595 27.414 12.5775C27.414 11.5875 27.5927 10.7167 27.9502 9.965C28.3077 9.20417 28.8348 8.61292 29.5315 8.19125C30.2373 7.76042 31.1127 7.545 32.1577 7.545C33.2119 7.545 33.9956 7.70083 34.509 8.0125C35.0315 8.315 35.2927 8.69083 35.2927 9.14C35.2927 9.48833 35.146 9.77708 34.8527 10.0062C34.5594 10.2262 34.1331 10.3362 33.574 10.3362C33.574 10.0337 33.5281 9.73583 33.4365 9.4425C33.3448 9.14917 33.1844 8.90625 32.9552 8.71375C32.7352 8.52125 32.4373 8.425 32.0615 8.425C31.1906 8.425 30.581 8.78708 30.2327 9.51125C29.8935 10.2262 29.724 11.2483 29.724 12.5775C29.724 13.9067 29.9302 14.9012 30.3427 15.5612C30.7644 16.2121 31.484 16.5375 32.5015 16.5375C32.9506 16.5375 33.3356 16.4733 33.6565 16.345C33.9773 16.2075 34.2477 16.0425 34.4677 15.85C34.6969 15.6483 34.8894 15.4421 35.0452 15.2312C35.201 15.3596 35.279 15.5567 35.279 15.8225C35.279 16.0792 35.1827 16.3496 34.9902 16.6337C34.7977 16.9087 34.4723 17.1471 34.014 17.3487C33.5648 17.5413 32.9506 17.6375 32.1715 17.6375ZM40.036 17.6375C38.936 17.6375 38.0698 17.3212 37.4373 16.6887C36.8048 16.0471 36.4885 15.08 36.4885 13.7875C36.4885 12.495 36.791 11.5325 37.396 10.9C38.001 10.2675 38.8948 9.95125 40.0773 9.95125C41.1773 9.95125 42.0435 10.2675 42.676 10.9C43.3085 11.5325 43.6248 12.495 43.6248 13.7875C43.6248 15.08 43.3177 16.0471 42.7035 16.6887C42.0985 17.3212 41.2094 17.6375 40.036 17.6375ZM40.0635 16.7712C40.5952 16.7712 40.9665 16.5192 41.1773 16.015C41.3881 15.5017 41.4935 14.7592 41.4935 13.7875C41.4935 12.8067 41.3835 12.0687 41.1635 11.5737C40.9527 11.0787 40.5815 10.8312 40.0498 10.8312C39.5181 10.8312 39.1469 11.0787 38.936 11.5737C38.7252 12.0687 38.6198 12.8067 38.6198 13.7875C38.6198 14.7592 38.7252 15.5017 38.936 16.015C39.156 16.5192 39.5319 16.7712 40.0635 16.7712ZM44.5499 17.5V16.7712H44.5774C44.8891 16.7712 45.1457 16.7162 45.3474 16.6062C45.5491 16.4962 45.6499 16.235 45.6499 15.8225V11.7525C45.6499 11.3675 45.5582 11.1246 45.3749 11.0237C45.2007 10.9137 44.9624 10.8587 44.6599 10.8587H44.6187V10.13H47.5062L47.6849 11.1062H47.7537C47.937 10.7671 48.1341 10.515 48.3449 10.35C48.5649 10.185 48.7987 10.0796 49.0462 10.0337C49.2937 9.97875 49.5641 9.95125 49.8574 9.95125C50.5632 9.95125 51.1178 10.1621 51.5212 10.5837C51.9245 11.0054 52.1262 11.6792 52.1262 12.605V15.795C52.1262 16.2167 52.1995 16.4871 52.3462 16.6062C52.502 16.7162 52.7357 16.7712 53.0474 16.7712H53.0887V17.5H50.0362V12.9762C50.0362 12.3804 49.9537 11.9221 49.7887 11.6012C49.6237 11.2804 49.3395 11.12 48.9362 11.12C48.6337 11.12 48.3953 11.2208 48.2212 11.4225C48.047 11.615 47.9232 11.8762 47.8499 12.2062C47.7766 12.5271 47.7399 12.8754 47.7399 13.2512V15.8775C47.7399 16.2625 47.827 16.51 48.0012 16.62C48.1845 16.7208 48.4274 16.7712 48.7299 16.7712H48.7712V17.5H44.5499ZM56.7873 17.6375C56.1731 17.6375 55.6827 17.4771 55.316 17.1562C54.9494 16.8354 54.766 16.2717 54.766 15.465V11.065H53.7348V10.3637C54.0281 10.3637 54.2894 10.3087 54.5185 10.1987C54.7569 10.0796 54.9448 9.94208 55.0823 9.78625C55.3665 9.48375 55.5773 9.03 55.7148 8.425H56.856V10.13H58.616V11.065H56.856V15.3275C56.856 15.74 56.9248 16.0425 57.0623 16.235C57.209 16.4275 57.4427 16.5237 57.7635 16.5237C57.9469 16.5237 58.1165 16.5146 58.2723 16.4962C58.4373 16.4687 58.5931 16.4367 58.7398 16.4V17.2937C58.5931 17.3579 58.3502 17.4312 58.011 17.5138C57.681 17.5963 57.2731 17.6375 56.7873 17.6375ZM61.7961 17.6375C61.1911 17.6375 60.6777 17.4542 60.2561 17.0875C59.8436 16.7208 59.6373 16.1571 59.6373 15.3962C59.6373 14.6537 59.8894 14.1037 60.3936 13.7462C60.9069 13.3887 61.6815 13.1917 62.7173 13.155L63.8448 13.1137V12.3575C63.8448 11.8992 63.7944 11.5233 63.6936 11.23C63.6019 10.9367 63.3681 10.79 62.9923 10.79C62.644 10.79 62.4011 10.9321 62.2636 11.2162C62.1352 11.5004 62.0711 11.8533 62.0711 12.275C61.4569 12.275 60.994 12.2062 60.6823 12.0687C60.3706 11.9312 60.2148 11.6929 60.2148 11.3537C60.2148 11.0146 60.3431 10.7442 60.5998 10.5425C60.8565 10.3408 61.1956 10.1942 61.6173 10.1025C62.0481 10.0017 62.5248 9.95125 63.0473 9.95125C64.0098 9.95125 64.7294 10.1254 65.2061 10.4737C65.6919 10.8221 65.9348 11.4271 65.9348 12.2887V15.795C65.9348 16.1708 65.9944 16.4275 66.1136 16.565C66.2327 16.7025 66.4481 16.7712 66.7598 16.7712H66.8148V17.5H64.2573L63.9686 16.5512H63.8448C63.6431 16.7987 63.4506 17.005 63.2673 17.17C63.0931 17.3258 62.8915 17.4404 62.6623 17.5138C62.4331 17.5963 62.1444 17.6375 61.7961 17.6375ZM62.5523 16.6337C62.9465 16.6337 63.2581 16.4779 63.4873 16.1662C63.7256 15.8454 63.8448 15.4146 63.8448 14.8737V13.8425L63.2261 13.8837C62.6761 13.9112 62.2956 14.0579 62.0848 14.3237C61.874 14.5804 61.7686 14.9562 61.7686 15.4512C61.7686 16.2396 62.0298 16.6337 62.5523 16.6337ZM71.306 17.6375C70.6368 17.6375 70.0456 17.5183 69.5323 17.28C69.0189 17.0325 68.6156 16.6337 68.3223 16.0837C68.0381 15.5246 67.896 14.7775 67.896 13.8425C67.896 12.8525 68.0427 12.0779 68.336 11.5187C68.6385 10.9504 69.0418 10.5471 69.546 10.3087C70.0593 10.0704 70.6323 9.95125 71.2648 9.95125C72.1539 9.95125 72.8277 10.0933 73.286 10.3775C73.7535 10.6525 73.9873 10.9917 73.9873 11.395C73.9873 11.5967 73.9368 11.7846 73.836 11.9587C73.7443 12.1329 73.5702 12.2796 73.3135 12.3987C73.0568 12.5087 72.6902 12.5637 72.2135 12.5637C72.2135 12.2429 72.186 11.9496 72.131 11.6837C72.076 11.4179 71.9843 11.2025 71.856 11.0375C71.7277 10.8725 71.5489 10.79 71.3198 10.79C71.0539 10.79 70.8202 10.8817 70.6185 11.065C70.426 11.2392 70.2748 11.5508 70.1648 12C70.0639 12.44 70.0135 13.0496 70.0135 13.8287C70.0135 14.7546 70.1418 15.4512 70.3985 15.9187C70.6552 16.3771 71.0723 16.6062 71.6498 16.6062C72.1264 16.6062 72.5389 16.5008 72.8873 16.29C73.2356 16.07 73.4877 15.8042 73.6435 15.4925C73.7535 15.5658 73.836 15.6575 73.891 15.7675C73.946 15.8775 73.9735 15.9967 73.9735 16.125C73.9735 16.3542 73.8773 16.5879 73.6848 16.8262C73.5014 17.0554 73.2127 17.2479 72.8185 17.4037C72.4243 17.5596 71.9202 17.6375 71.306 17.6375ZM77.842 17.6375C77.2278 17.6375 76.7374 17.4771 76.3707 17.1562C76.0041 16.8354 75.8207 16.2717 75.8207 15.465V11.065H74.7895V10.3637C75.0828 10.3637 75.3441 10.3087 75.5732 10.1987C75.8116 10.0796 75.9995 9.94208 76.137 9.78625C76.4211 9.48375 76.632 9.03 76.7695 8.425H77.9107V10.13H79.6707V11.065H77.9107V15.3275C77.9107 15.74 77.9795 16.0425 78.117 16.235C78.2636 16.4275 78.4974 16.5237 78.8182 16.5237C79.0016 16.5237 79.1711 16.5146 79.327 16.4962C79.492 16.4687 79.6478 16.4367 79.7945 16.4V17.2937C79.6478 17.3579 79.4049 17.4312 79.0657 17.5138C78.7357 17.5963 78.3278 17.6375 77.842 17.6375ZM84.03 17.5V16.7712H84.6075C84.8 16.7712 84.965 16.7254 85.1025 16.6337C85.24 16.5421 85.3088 16.3129 85.3088 15.9462V9.25C85.3088 8.88333 85.24 8.65417 85.1025 8.5625C84.965 8.46167 84.8 8.41125 84.6075 8.41125H84.03V7.6825H87.99L90.2725 14.3237L92.4588 7.6825H96.35V8.41125H95.7725C95.5709 8.41125 95.4013 8.46167 95.2638 8.5625C95.1354 8.66333 95.0713 8.91083 95.0713 9.305V15.8775C95.0713 16.2717 95.1354 16.5192 95.2638 16.62C95.4013 16.7208 95.5709 16.7712 95.7725 16.7712H96.35V17.5H91.95V16.7712H92.0875C92.3809 16.7712 92.5963 16.73 92.7338 16.6475C92.8804 16.5558 92.9538 16.3404 92.9538 16.0012V9.04375L90.1763 17.5H89.2413L86.34 9.04375V15.8775C86.34 16.2717 86.4271 16.5192 86.6013 16.62C86.7846 16.7208 87.0367 16.7712 87.3575 16.7712H87.44V17.5H84.03ZM100.945 17.6375C99.7712 17.6375 98.8821 17.3075 98.2771 16.6475C97.6812 15.9875 97.3833 15.0571 97.3833 13.8562C97.3833 12.5637 97.6766 11.5921 98.2633 10.9412C98.8591 10.2812 99.7025 9.95125 100.793 9.95125C101.792 9.95125 102.576 10.2308 103.145 10.79C103.722 11.3492 104.011 12.1742 104.011 13.265V13.9663H99.5008C99.5283 14.8921 99.6979 15.5658 100.01 15.9875C100.33 16.4 100.775 16.6062 101.343 16.6062C101.82 16.6062 102.223 16.5008 102.553 16.29C102.883 16.07 103.126 15.8042 103.282 15.4925C103.53 15.63 103.653 15.8546 103.653 16.1662C103.653 16.5604 103.433 16.9042 102.993 17.1975C102.553 17.4908 101.87 17.6375 100.945 17.6375ZM99.5283 13.0862H101.907C101.907 12.3804 101.825 11.8304 101.66 11.4362C101.495 11.0421 101.215 10.845 100.821 10.845C100.436 10.845 100.129 11.0375 99.8996 11.4225C99.6704 11.8075 99.5466 12.3621 99.5283 13.0862Z" fill="black"/>
<defs>
<filter id="filter0_d_438_975" x="0" y="0" width="128.75" height="35" filterUnits="userSpaceOnUse" color-interpolation-filters="sRGB">
<feFlood flood-opacity="0" result="BackgroundImageFix"/>
<feColorMatrix in="SourceAlpha" type="matrix" values="0 0 0 0 0 0 0 0 0 0 0 0 0 0 0 0 0 0 127 0" result="hardAlpha"/>
<feOffset dy="5"/>
<feGaussianBlur stdDeviation="2.5"/>
<feComposite in2="hardAlpha" operator="out"/>
<feColorMatrix type="matrix" values="0 0 0 0 0 0 0 0 0 0 0 0 0 0 0 0 0 0 0.25 0"/>
<feBlend mode="normal" in2="BackgroundImageFix" result="effect1_dropShadow_438_975"/>
<feBlend mode="normal" in="SourceGraphic" in2="effect1_dropShadow_438_975" result="shape"/>
</filter>
</defs>
</svg>
