<svg width="255" height="92" viewBox="0 0 255 92" fill="none" xmlns="http://www.w3.org/2000/svg"><path d="M11.616 32.024c-.96.192-.288.96.096.768.384-.192.096-.768-.096-.768zm3.744.192c.672-.288.288-1.344-.192-1.248-1.728.288-.576 1.632.192 1.248zm18.144-12.768c-.672 1.152-3.648 5.952-7.872 5.952 0 0-1.344-.672-1.728-1.92-.288-1.152-2.112-4.32-3.456-4.704-1.344-.48-4.416-2.016-4.416-2.016s2.208 6.528 4.896 7.584c2.784 1.152 3.072 1.248 3.264 1.44.288.192-4.512-.096-6.432-.576-.576-.096-2.208-.672-2.208-.672s-2.592-1.056-2.592-2.688c0-1.536-.96-5.184-2.112-5.856l-.48 3.936s-1.536-2.4-2.4-3.072c-.864-.672-1.344-1.92-1.824-1.632-.48.384-2.304 1.248-2.688 2.784-.48 1.536-1.632 3.072-1.44 4.32.288 1.344.48 1.152.48 2.112 0 1.056-.384.864.288 1.728.576.768.672.48 1.44 1.536.768.96.768 1.44 1.728 1.728 1.056.288.288.672 1.536.192 1.248-.48 2.592-1.248 2.592-1.248s-1.056 1.152-1.056 1.632c0 0 .192-.288 1.632-.768 1.44-.576 1.824-.576 2.208-1.344.384-.672.768-.48.768-.48s-.192.384.48.576c.672.192 2.784 2.112 2.784 1.728-.096-.288-.576-.96-.864-1.728-.192-.768-.768-1.824-.768-1.824s1.632.096 1.824.768c.192.672-.288 1.152.576 1.056.864-.096 3.552-.576 4.224-.672.672 0-2.688 1.728-2.976 4.032 0 0 1.44 1.056 3.264-.384 1.824-1.44 1.728-2.4 1.728-2.4s.096 1.92.96 2.88 2.208.672 2.208.672-.384-3.168-.96-4.128l-.576-.864s4.992.384 9.408-5.28c.384-.48.384-.96.096-1.44-.288-.384-.672-.864-1.056-1.152-.192-.096-.384 0-.48.192zm21.903 21.696c-.96.288-.48 1.44-.48 1.44 0 .384 1.344.672 1.824-.192.384-.864-.288-1.632-1.344-1.248zm1.248-2.88c-.96.672.192 1.152.48.672.384-.384-.192-.864-.48-.672zm-12.864-2.016c.192-.384-.288-.768-.48-.576-.768.576.192.96.48.576zM29.583 19.256c-.96.192-.288.96.096.768.384-.192.096-.768-.096-.768zm1.824 2.208c.672-.288.288-1.344-.192-1.344-1.728.288-.48 1.632.192 1.344zm22.656 15.84c-1.152.864-4.32 2.208-12.864.864-2.208-.288-4.128-.576-5.664-.768.864-2.016 3.072-7.68 4.704-18.528C41.871 7.352 40.047.44 34.287.44c0 0-4.896 0-5.184 4.608 0 0-.576 4.992 5.28 6.144-.288 3.264-.768 6.912-.768 6.912-.96 7.968-2.976 14.4-3.84 16.992-.288.768-.096 1.536.384 2.112-1.536.288-2.304 1.248-2.688 3.072-.096.288.288.576.672.48 1.152-.672 4.128-1.152 11.328.864 5.568 1.536 8.64 1.632 8.64 1.632 6.144.576 6.72-3.552 6.624-5.664 0-.384-.384-.576-.672-.288zM36.399 2.168c.096 0 .288.096.48.192.384.192.768.576 1.248 1.056.384.48.768 1.152.96 1.824.096.192.096.384.192.576v.48c0 .096.096.192.096.288v.768s-.096-.192-.192-.48c-.096-.192-.192-.576-.384-.96l-.288-.576c-.096-.192-.192-.384-.288-.48-.096-.192-.192-.384-.288-.48-.096-.096-.096-.288-.192-.384-.192-.384-.48-.864-.864-1.248-.096-.192-.288-.384-.384-.48-.096-.096-.096-.096-.192-.096v-.096l.096.096zM33.423 39.32H32.079c-.192.096-.288.096-.48.096h-.384c-.096.096-.192.096-.288.096-.384 0-.864-.096-1.248 0h-.48c-.192 0-.192.096-.192.096s0-.096.096-.096c0-.096.192-.192.288-.192.288-.192.672-.384 1.152-.48a5.22 5.22 0 011.728 0c.48 0 1.056.192 1.44.48h-.288zm1.056-30.048c-1.152-.192-2.496-.768-3.072-2.304-.768-2.016.384-3.168 1.248-3.264.768-.096 1.728.48 1.824 3.648.096.48 0 1.152 0 1.92zm19.584 29.664c0 .288-.096.672-.288 1.152-.096.384-.384.864-.768 1.248-.192.192-.48.384-.672.48-.288.096-.48.096-.768.192 0 0 0-.096.096-.096 0 0 .096-.096.192-.096l.576-.576c.096-.192.288-.48.384-.672.192-.288.288-.48.384-.576.096-.288.384-.672.576-.96.096-.192.096-.288.192-.384 0-.096.096-.192.096-.192v.48zm12.4163-19.968c-.288-.288-.672-.288-.864.096-1.92 4.128-9.12 14.112-11.712 13.728-.864-.096-.672-3.936.096-8.544 4.608-1.728 5.568-5.76 5.568-5.76 1.344-5.472-2.784-5.76-2.784-5.76-7.968-.48-9.024 9.792-9.024 9.792C45.9352 35.096 53.1353 35 53.1353 35c5.76.384 13.824-14.112 13.824-14.112.192-.768-.192-1.44-.48-1.92zm-9.504-4.512s1.248.576.96 2.784c0 0-.384 3.264-3.552 4.896.48-1.728 2.016-7.584 2.592-7.68zm-4.416 19.296H51.9833c-.096 0-.192-.096-.192-.096h-.192c-.096-.096-.192-.096-.192-.096-.096 0-.192-.096-.192-.096-.288-.096-.48-.192-.576-.288-.192-.288-.48-.576-.576-.864-.096-.192-.096-.288-.096-.384-.096-.096-.096-.192-.096-.192l.096.096.192.192c.192.096.48.288.768.48.288.288.576.48.96.672.288.192.672.384.96.576h-.288zm-.096-18.24c-.192.096-.288.192-.384.288l-.096.096V15.8c0-.096.096-.192.096-.288.192-.288.384-.672.768-.96.288-.384.768-.576 1.344-.768.48-.192.96-.192 1.44-.096 0 0-.096 0-.288.096-.192.096-.384.192-.672.384-.096 0-.288.096-.384.192-.096.096-.288.096-.384.192-.096.096-.192.192-.288.192-.096.096-.192.096-.288.192-.192.096-.576.288-.864.576zm-2.304 20.352c-1.056.384-.48 1.44-.48 1.44 0 .384 1.344.672 1.728-.096.48-.864-.192-1.728-1.248-1.344zm7.296.096c-.768.672.192.96.48.672.192-.384-.288-.768-.48-.672zm25.0372-16.992c-.192-.288-.576-.288-.768-.096-1.536 1.728-4.992 3.36-8.448 4.8-1.056-1.92-2.208-3.552-2.208-5.664-.192-4.512 2.112-4.32 2.112-4.32 2.208.288 2.208 3.168 2.112 4.416 0 .384.288.576.672.48.576-.288.96-.672 1.248-1.056.192-.192.288-.576.288-.864 0-5.76-4.416-5.28-4.416-5.28s-8.064-.288-8.832 8.256c0 0 0 3.936 2.496 7.392-1.44 1.344-1.824 2.304-1.824 2.304-1.824 4.128 1.92 5.856 1.92 5.856 2.88 1.248 5.664.096 6.72-1.056 2.688-2.496 1.536-6.528 1.536-6.528-.192-.768-.48-1.44-.768-2.016 5.856-2.016 8.064-4.8 8.064-4.8.48-.768.288-1.44.096-1.824zm-15.936-1.824c-.192.192-.288.384-.288.576l-.192.192s0-.288.096-.576c.096-.384.192-.864.48-1.44.192-.576.576-1.152 1.056-1.536.288-.288.576-.48.864-.672l.864-.288s0 .096-.096.096c0 0 0 .096-.096.096l-.096.096c-.192.192-.48.384-.768.672l-.576.864c-.192.288-.384.576-.48.768-.192.288-.576.768-.768 1.152zm2.88 15.552c-.48.48-1.344.672-2.016.288-1.824-1.056-.288-3.072-.288-3.072.288-.48.672-.864 1.152-1.248.576.768 1.248 1.728 1.44 2.592 0 0 .288.96-.288 1.44zm4.608-1.248c-.192.48-.384 1.056-.768 1.44-.384.48-.864.768-1.344.96l.288-.288s0-.096.096-.096c0-.096.096-.096.096-.192.096-.096.192-.192.288-.384 0-.096.096-.192.192-.384 0-.096.096-.096.096-.192s.096-.096.096-.192 0-.096.096-.192v-.192c.096-.096.096-.192.192-.288.096-.288.384-.672.48-1.056.096-.192.096-.288.192-.48v-.192.192c.096.096.096.192.096.384 0 .288 0 .672-.096 1.152zM19.2 86.824c-1.056.384-.48 1.44-.48 1.44 0 .384 1.248.672 1.728-.192.48-.768-.288-1.632-1.248-1.248zm.864-3.552c.288-.384-.288-.96-.576-.768-.96.768.288 1.248.576.768zm1.92 2.112c-.768.576.192.96.48.576s-.192-.768-.48-.576zM8.448 72.424c-1.056 0-.48.864-.096.768.48-.192.288-.768.096-.768zm.864 2.304c-1.728 0-.672 1.536 0 1.248.768-.192.576-1.248 0-1.248zm14.784-25.536c-.288 0-.576.288-.384.672.48 1.344.768 5.76-4.8 19.2-.576 1.536-1.248 2.976-1.728 4.416-.192-2.4-.48-4.896-.864-7.488-1.92-11.52-5.664-17.472-11.136-15.84 0 0-4.704 1.44-3.552 5.952 0 0 .864 4.896 6.816 4.224.672 3.264 1.344 6.912 1.344 6.912 1.728 10.56 1.44 18.624 1.152 21.6 0 .768.48 1.536 1.248 1.824.96.48 2.592.768 4.32-.192.384-.192.576-.48.672-.96 0-.576.096-1.728.192-3.168.384-3.456 1.44-8.448 4.992-15.936 3.648-7.008 4.896-11.712 4.896-11.712 2.88-8.832-1.248-9.6-3.168-9.504zm-19.68 8.064c-1.344-1.728-.576-3.168.192-3.552.672-.288 1.728 0 2.784 2.976.192.48.384 1.152.576 1.92-1.152.096-2.592-.096-3.552-1.344zm6.72-3.168c-.096-.192-.384-.384-.576-.672-.096-.096-.288-.192-.384-.288-.096-.096-.288-.192-.384-.288l-.288-.288c-.096-.096-.192-.096-.288-.192-.288-.288-.672-.576-.96-.768-.192-.192-.384-.288-.48-.288-.096 0-.096-.096-.192-.096h.48c.384.096.864.192 1.344.48.384.288.864.672 1.248 1.152.384.48.672 1.056.768 1.536l-.288-.288zm2.976 35.808h-.192c-.192 0-.48 0-.768-.096h-.192s0-.096-.096-.096-.096-.096-.192-.096l-.384-.384c-.192-.288-.288-.576-.288-.768-.096-.384 0-.864.096-1.248 0-.192.096-.384.096-.48.096-.096.096-.192.096-.192s0 .192.096.48c0 .288 0 .672.192 1.056.096.48.288.864.576 1.152.096.192.288.288.48.384l.576.288h-.096zM27.168 55.72v-.384-.192-.096-.096-.48c-.096-.192-.096-.384-.096-.576 0-.192-.096-.288-.096-.48s-.096-.288-.096-.384c0-.192-.096-.288-.096-.384 0-.192-.096-.384-.096-.576-.096-.096-.096-.096-.096-.192 0 0 0-.096-.096-.096v-.192l-.096-.096c-.096-.192-.192-.384-.288-.48-.096-.096-.096-.192-.096-.192l.096.096s.096 0 .192.096c0 0 .096 0 .192.096.288.192.576.576.768 1.152.288.48.384 1.152.384 1.728 0 .672-.288 1.248-.48 1.728zm17.9738 13.248c-.192-.288-.672-.192-.864.096-1.824 4.32-7.584 14.016-9.696 13.728-.96-.096-.192-5.376.864-10.656.384-2.112.864-4.224 1.248-6.048.096-.576-.096-1.248-.576-1.536-1.728-1.344-3.936-1.152-5.568-.096-.576.288-.96.864-1.152 1.536-.576 2.88-1.152 6.816-.672 10.944.96 8.064 5.088 8.064 5.088 8.064 4.992.384 11.808-14.112 11.808-14.112.192-.768-.096-1.44-.48-1.92zm-11.808 14.784h-.192c-.096 0-.096-.096-.192-.096h-.192c-.096-.096-.192-.096-.192-.096-.096-.096-.192-.096-.288-.096 0-.096-.096-.096-.192-.192-.096 0-.096-.096-.192-.096l-.192-.192s-.096 0-.096-.096h-.096c0-.096-.096-.192-.096-.192-.096-.096-.192-.192-.192-.288-.096-.096-.096-.192-.192-.288 0-.096-.096-.192-.096-.288 0-.288-.096-.48-.096-.672v-.48-.192.096c.096.096.096.192.192.288.096.288.288.672.576.96.288.384.576.768.96 1.056.288.384.672.672 1.056.96 0 0-.096 0-.288-.096zm.672-18.912c-.384-.192-.672-.192-.672-.192h.0959c.0961-.096.1921-.096.3841-.096h.576c.192.096.48.192.672.384.288.096.48.384.576.672.096.288.192.576.192.864 0 .576-.192 1.152-.48 1.536v-.384-.768c-.096-.288-.096-.576-.288-.864-.096-.192-.192-.384-.288-.48-.096-.096-.192-.288-.288-.384-.192-.096-.288-.192-.48-.288zm-1.056-2.304h1.632c.768-.096 1.344-.48 1.632-1.152.384-.864.768-2.016.96-2.688.096-.384-.096-.864-.48-1.056-1.44-.576-3.072-.384-3.936-.192-.48.096-.864.48-.96.96-.192.864-.288 1.632-.288 2.496 0 .768.576 1.536 1.44 1.632zm2.016-4.512l.096-.096h.48c.192 0 .48.096.672.288.096 0 .096.096.192.096v.192c.096.192.096.288 0 .384l-.096-.096c-.096-.096-.192-.096-.288-.192-.192 0-.48 0-.576-.096-.096 0-.192-.192-.384-.288l-.192-.192h.096zm-2.592 2.688c0-.192.096-.192.096-.288h.096v-.096.096s0 .096.096.192c0 .096.096.192.192.288.192.096.288.192.48.288 0 0 .0959 0 .0959.096h.1921l.288.288h-.192s-.096.096-.192.096h-.48-.192c-.096 0-.192-.096-.288-.096 0-.096-.096-.096-.096-.192-.096 0-.096-.096-.096-.192 0 0-.096-.096-.096-.192s.096-.192.096-.288zm4.128 24.96c-1.056.384-.48 1.44-.48 1.44 0 .384 1.344.672 1.728-.096.48-.864-.192-1.728-1.248-1.344zm-4.032 1.248c-.768.576.192.96.48.576.192-.288-.288-.768-.48-.576zm4.032-12.864c-1.344 1.056.288 1.728.768 1.056.48-.576-.384-1.344-.768-1.056zm24.6292-5.088c-.192-.288-.672-.288-.768.096-2.016 4.224-9.12 14.112-11.808 13.728-.96-.096-.672-4.992.384-10.272 0 0 2.016-9.312 2.688-9.408 0 0 1.056.288.768 1.632-.096.864-.576 1.536-.864 1.824-.096.096-.096.288.096.384.192.192.576.384 1.152.288.192 0 .384-.096.576-.288.288-.384.576-.96.672-1.44.864-4.032-2.592-4.128-2.592-4.128-7.968-.096-9.024 11.136-9.024 11.136C41.259 85.48 47.883 85 47.883 85c5.664.384 13.728-14.112 13.728-14.112.288-.768-.096-1.44-.48-1.92zm-10.56-6.624l-2.88 1.344s.864-1.728 2.88-1.344zm-5.568 19.968l3.456 1.824c-2.208.192-3.456-1.824-3.456-1.824zm39.0578-27.648c-1.2481-1.056-3.072-1.632-5.664-1.632-2.112 0-4.896.288-8.352.96.192-.864.384-1.632.576-2.112.096-.672-.096-1.44-.672-1.824-2.112-1.536-4.8-.768-6.1441-.192-.4799.192-.7679.576-.9599 1.056-.384 1.632-.768 3.168-1.056 4.704-3.456.384-5.5681 0-6.9121-.384-1.824-.672-2.4-1.536-2.4-1.632-.192-.096-.288-.192-.384-.288-.192-.096-.48-.192-.9599 0-.7681.384-.3841 1.248-.3841 1.248.096.192.864 1.44 3.168 2.304 1.44.576 3.168.864 5.0881.864.768 0 1.536-.096 2.304-.096-1.632 8.352-2.112 14.4-2.112 14.4-1.152 12.864 5.664 12.96 5.664 12.96 5.664.384 13.728-14.112 13.728-14.112.192-.672-.096-1.344-.384-1.824-.288-.384-.768-.288-.96.096-2.016 4.224-9.12 14.016-11.712 13.632-.96-.096-.48-5.376.48-10.848.768-4.608 2.304-11.328 3.456-15.84 7.392-1.536 11.616-1.44 13.3439 0 .3841.384.9601.288 1.3441-.096.384-.384.288-1.056-.096-1.344zm-20.832 28.608c-.096 0-.192-.096-.288-.096-.192-.096-.288-.192-.48-.288h-.096c0-.096 0-.096-.096-.096l-.192-.192c-.096-.096-.288-.192-.384-.384l-.288-.288c-.096-.096-.096-.288-.192-.288-.192-.384-.288-.96-.288-1.344-.096-.192-.096-.384-.096-.48v-.192s.096.096.288.384c.096.288.288.672.576 1.056.192.384.576.864.864 1.248.384.384.672.768 1.056 1.056 0 0-.096 0-.384-.096zm6.24-30.24v-.096-.192c-.096-.192-.096-.48-.192-.672-.096-.288-.288-.48-.384-.672-.096-.192-.288-.288-.384-.384l-.288-.288c-.192-.096-.288-.192-.48-.288-.096 0-.288-.096-.384-.096l-.096-.096h.096c.096 0 .192-.096.288-.096.288 0 .672 0 1.056.288.192.096.48.192.576.48.192.192.288.384.384.672.096.576 0 1.056-.192 1.44zM94.986 69.16c-.096-.288-.288-.384-.48-.288-.768.672-2.592 2.016-4.992 2.976 0-2.112-.384-9.696-6.624-9.792 0 0-6.72-.384-7.2 5.952 0 0-.288 2.4 1.44 4.224-.864 3.648-1.152 8.256 1.536 11.52 0 0 1.152 1.536 3.84 1.248 2.112-.192 6.144-2.208 6.912-11.232 2.688-.768 4.32-2.112 4.896-2.592.192-.192.288-.384.384-.576.096-.288.288-.864.288-1.44zM81.354 83.944h-.288c-.192 0-.48-.096-.864-.192-.288-.096-.672-.288-.96-.576-.192-.192-.48-.48-.576-.672-.192-.288-.384-.864-.48-1.248v-.576-.192.096c.096.096.096.192.192.288.192.288.384.672.672 1.152.288.384.672.768 1.056 1.056.48.384.864.672 1.344.864h-.096zm.96-17.088v-.096c.096 0 .192 0 .192-.096.096 0 .192-.096.288-.096h.48c.096 0 .288.096.48.288.096 0 .096.096.192.192v.288c0 .192 0 .384-.096.48 0 .192-.096.288-.192.384 0 0-.096-.096-.096-.192s0-.288-.096-.384v-.096c0-.096 0-.096-.096-.096 0-.096 0-.096-.096-.192-.096 0-.096 0-.192-.096 0 0-.096 0-.096-.096-.096 0-.192-.096-.288-.096-.192-.096-.384-.096-.384-.096zm1.152 15.84s-1.44-3.456-.672-8.16c1.728.096 3.264 0 4.608-.288-.384 2.592-1.536 7.968-3.936 8.448zm4.224-10.272c-1.44.288-2.976.48-4.512.384.672-2.976 1.536-5.184 1.824-6.144.192-.384 0-.768-.288-.864-.864-.288-2.4-.576-4.704.384-.576.192-.96.576-1.152 1.152-.288.576-.576 1.44-.96 2.496-.192-.48-.384-1.152-.288-1.92 0 0 .288-4.416 5.28-4.032 0 0 5.28-.192 4.8 8.544zM85.002 85.48c-.96.384-.384 1.536-.384 1.536 0 .288 1.248.576 1.728-.192.48-.864-.288-1.728-1.344-1.344zm-3.264.96c-.864.576.096.96.384.576.288-.288-.192-.768-.384-.576zm33.563-17.472c-.288-.288-.768-.192-.864.096-1.92 4.32-7.68 14.016-9.792 13.728-.96-.096 0-4.992 1.44-10.176.768-2.4 1.728-4.896 2.4-6.72.288-.672.096-1.44-.48-1.824-1.536-1.344-3.648-1.344-5.376-.384-.576.288-.96.672-1.248 1.248-.96 1.248-3.8397 4.8-5.7597 4.512 1.824-.864 2.592-3.072 2.592-3.072.576-1.728.48-2.784.288-3.456-.672-2.016-2.688-1.536-2.688-1.536-3.072.48-4.7041 7.872-1.632 9.6 2.208 1.152 4.32-.192 5.9517-1.824-.4797 2.304-.9597 4.992-.8637 7.392.384 8.16 4.7037 8.448 4.7037 8.448 4.992.384 11.712-14.112 11.712-14.112.288-.768-.096-1.44-.384-1.92zm-9.312-4.704h.384c.192.096.384.096.576.192.192.192.384.288.48.576.096.096.096.096.096.192.096.096.096.096.096.192s0 .192.096.192V65.896c-.096.384-.192.576-.288.864-.192.48-.48.96-.768 1.344 0 0 0-.192.096-.384 0-.192.096-.48.096-.768.096-.288.096-.672.192-.864v-.096-.096-.192s0-.096-.096-.096v-.096-.288c-.096 0-.096 0-.096-.096v-.096c-.096-.192-.288-.288-.384-.384-.192-.192-.288-.288-.384-.288-.096-.096-.192-.096-.192-.096h.096zm-11.4237 3.84c-.192-.576-.192-1.344 0-2.4 0 0 .576-2.592 1.536-2.592.96 0 .576 2.4-.096 3.552-.48.768-1.0561 1.152-1.44 1.44zm8.8317 15.456h-.192c-.192-.096-.48-.192-.672-.288-.288-.192-.48-.384-.672-.576-.288-.192-.384-.384-.48-.576-.192-.288-.288-.672-.288-1.056-.096-.192-.096-.384-.096-.48v-.192s.096.192.288.384c.096.192.288.576.576.864.192.384.48.672.768 1.056.288.288.576.672.864.864h-.096zm26.12-14.592c-.192-.288-.672-.192-.864.096-1.824 4.32-7.584 14.016-9.696 13.728-.96-.096-.192-5.376.864-10.656.384-2.112.864-4.224 1.248-6.048.096-.576-.096-1.248-.576-1.536-1.728-1.344-3.936-1.152-5.568-.096-.576.288-.96.864-1.152 1.536-.576 2.88-1.152 6.816-.672 10.944.96 8.064 5.088 8.064 5.088 8.064 4.992.384 11.808-14.112 11.808-14.112.192-.768-.096-1.44-.48-1.92zm-11.808 14.784h-.192c-.096 0-.096-.096-.192-.096h-.192c-.096-.096-.192-.096-.192-.096-.096-.096-.192-.096-.288-.096 0-.096-.096-.096-.192-.192-.096 0-.096-.096-.192-.096l-.192-.192s-.096 0-.096-.096h-.096c0-.096-.096-.192-.096-.192-.096-.096-.192-.192-.192-.288-.096-.096-.096-.192-.192-.288 0-.096-.096-.192-.096-.288 0-.288-.096-.48-.096-.672v-.48-.192.096c.096.096.096.192.192.288.096.288.288.672.576.96.288.384.576.768.96 1.056.288.384.672.672 1.056.96 0 0-.096 0-.288-.096zm.672-18.912c-.384-.192-.672-.192-.672-.192h.096c.096-.096.192-.096.384-.096h.576c.192.096.48.192.672.384.288.096.48.384.576.672.096.288.192.576.192.864 0 .576-.192 1.152-.48 1.536v-.384-.768c-.096-.288-.096-.576-.288-.864-.096-.192-.192-.384-.288-.48-.096-.096-.192-.288-.288-.384-.192-.096-.288-.192-.48-.288zm-1.056-2.304h1.632c.768-.096 1.344-.48 1.632-1.152.384-.864.768-2.016.96-2.688.096-.384-.096-.864-.48-1.056-1.44-.576-3.072-.384-3.936-.192-.48.096-.864.48-.96.96-.192.864-.288 1.632-.288 2.496 0 .768.576 1.536 1.44 1.632zm2.016-4.512l.096-.096h.48c.192 0 .48.096.672.288.096 0 .096.096.192.096v.192c.096.192.096.288 0 .384l-.096-.096c-.096-.096-.192-.096-.288-.192-.192 0-.48 0-.576-.096-.096 0-.192-.192-.384-.288l-.192-.192h.096zm-2.592 2.688c0-.192.096-.192.096-.288h.096v-.096.096s0 .096.096.192c0 .096.096.192.192.288.192.096.288.192.48.288 0 0 .096 0 .096.096h.192l.288.288h-.192s-.096.096-.192.096h-.48-.192c-.096 0-.192-.096-.288-.096 0-.096-.096-.096-.096-.192-.096 0-.096-.096-.096-.192 0 0-.096-.096-.096-.192s.096-.192.096-.288zm4.128 24.96c-1.056.384-.48 1.44-.48 1.44 0 .384 1.344.672 1.728-.096.48-.864-.192-1.728-1.248-1.344zm-4.032 1.248c-.768.576.192.96.48.576.192-.288-.288-.768-.48-.576zm4.032-12.864c-1.344 1.056.288 1.728.768 1.056.48-.576-.384-1.344-.768-1.056zm25.384-5.088c-.288-.288-.672-.288-.864.096-1.92 4.128-9.12 14.112-11.712 13.728-.864-.096-.672-3.936.096-8.544 4.608-1.728 5.568-5.76 5.568-5.76 1.344-5.472-2.784-5.76-2.784-5.76-7.968-.48-9.024 9.792-9.024 9.792-1.825 12.576 5.376 12.48 5.376 12.48 5.76.384 13.824-14.112 13.824-14.112.192-.768-.192-1.44-.48-1.92zm-9.504-4.512s1.248.576.96 2.784c0 0-.384 3.264-3.552 4.896.48-1.728 2.016-7.584 2.592-7.68zm-4.416 19.296H131.765c-.096 0-.192-.096-.192-.096h-.192c-.096-.096-.192-.096-.192-.096-.096 0-.192-.096-.192-.096-.288-.096-.48-.192-.576-.288-.192-.288-.48-.576-.576-.864-.096-.192-.096-.288-.096-.384-.096-.096-.096-.192-.096-.192l.096.096.192.192c.192.096.48.288.768.48.288.288.576.48.96.672.288.192.672.384.96.576h-.288zm-.096-18.24c-.192.096-.288.192-.384.288l-.096.096V65.8c0-.096.096-.192.096-.288.192-.288.384-.672.768-.96.288-.384.768-.576 1.344-.768.48-.192.96-.192 1.44-.096 0 0-.096 0-.288.096-.192.096-.384.192-.672.384-.096 0-.288.096-.384.192-.096.096-.288.096-.384.192-.096.096-.192.192-.288.192-.096.096-.192.096-.288.192-.192.096-.576.288-.864.576zm-2.304 20.352c-1.056.384-.48 1.44-.48 1.44 0 .384 1.344.672 1.728-.096.48-.864-.192-1.728-1.248-1.344zm7.296.096c-.768.672.192.96.48.672.192-.384-.288-.768-.48-.672zm35.213-16.992c-.192-.288-.672-.288-.768.096-1.824 4.224-7.68 14.016-9.792 13.728-.96-.096-.192-5.376.864-10.656.864-4.032 1.728-8.16 2.208-9.888.096-.576-.192-1.152-.672-1.44-1.824-.96-3.744-.48-4.992 0-.672.288-1.344.864-1.536 1.632-.288.96-.768 2.496-1.152 4.32-1.92 6.816-4.416 13.248-5.952 13.344-2.208.192.192-8.64.192-8.64.576-2.208 1.344-5.28 1.824-7.296.096-.384 0-.864-.384-1.152-1.728-1.536-4.224-1.344-6.048-.192-.384.288-.768.768-.864 1.248-.48 2.112-1.152 5.088-1.248 8.16 0 0-1.056 11.04 5.568 10.56 2.688-.192 4.8-3.456 6.24-7.104.096.384.096.864.192 1.248C156.994 85 161.218 85 161.218 85c4.992.384 11.712-14.112 11.712-14.112.288-.768-.096-1.44-.48-1.92zm-10.176-7.584h.384c.096 0 .288 0 .384.096.192.096.384.288.48.48.096.192.192.384.192.576.096.288 0 .48 0 .672 0 .48-.192.864-.384 1.152 0 0-.096-.096-.096-.192v-.672c0-.288-.096-.48-.096-.672-.096-.288-.096-.384-.096-.48-.096-.192-.096-.288-.096-.384l-.288-.288c-.096-.096-.192-.192-.288-.192-.096 0-.096-.096-.096-.096h-.096.096zm-11.712 1.728h.192c.096 0 .288 0 .384.096.192.096.288.192.48.288l.288.576c.096.192.096.384.096.576 0 .384-.192.768-.48 1.056v-.288-.576c-.096-.192-.096-.384-.192-.48-.096-.192-.096-.288-.192-.384 0-.096 0-.192-.096-.288l-.288-.288c0-.096-.096-.192-.192-.192l-.096-.096h.096zm-2.016 18.624h-.192c-.288-.096-.576-.096-.864-.288l-.864-.576c-.288-.288-.384-.48-.48-.672-.192-.384-.384-.96-.384-1.344v-.48-.288s0 .096.096.192c0 .096 0 .192.096.288.096.288.288.672.576 1.056.288.48.576.864.96 1.248l1.152.864h-.096zm11.712 1.632h-.192c-.192-.096-.48-.192-.672-.384-.288-.192-.48-.384-.768-.672-.192-.192-.288-.384-.384-.576-.096-.288-.192-.768-.192-1.152-.096-.192-.096-.384-.096-.48 0-.096.096-.192.096-.192s0 .096.192.384c.096.288.288.576.48.96s.48.768.768 1.152c.288.384.576.672.864.96h-.096zM151.618 85c-1.056.384-.48 1.44-.48 1.44 0 .384 1.344.672 1.728-.192.48-.768-.288-1.632-1.248-1.248zm4.896-1.248c-.768.576.192.96.384.576.288-.288-.192-.768-.384-.576zm32.76-14.784c-.192-.288-.576-.288-.768-.096-1.536 1.728-4.992 3.36-8.448 4.8-1.056-1.92-2.208-3.552-2.208-5.664-.192-4.512 2.112-4.32 2.112-4.32 2.208.288 2.208 3.168 2.112 4.416 0 .384.288.576.672.48.576-.288.96-.672 1.248-1.056.192-.192.288-.576.288-.864 0-5.76-4.416-5.28-4.416-5.28s-8.064-.288-8.832 8.256c0 0 0 3.936 2.496 7.392-1.44 1.344-1.824 2.304-1.824 2.304-1.824 4.128 1.92 5.856 1.92 5.856 2.88 1.248 5.664.096 6.72-1.056 2.688-2.496 1.536-6.528 1.536-6.528-.192-.768-.48-1.44-.768-2.016 5.856-2.016 8.064-4.8 8.064-4.8.48-.768.288-1.44.096-1.824zm-15.936-1.824c-.192.192-.288.384-.288.576l-.192.192s0-.288.096-.576c.096-.384.192-.864.48-1.44.192-.576.576-1.152 1.056-1.536.288-.288.576-.48.864-.672l.864-.288s0 .096-.096.096c0 0 0 .096-.096.096l-.096.096c-.192.192-.48.384-.768.672l-.576.864c-.192.288-.384.576-.48.768-.192.288-.576.768-.768 1.152zm2.88 15.552c-.48.48-1.344.672-2.016.288-1.824-1.056-.288-3.072-.288-3.072.288-.48.672-.864 1.152-1.248.576.768 1.248 1.728 1.44 2.592 0 0 .288.96-.288 1.44zm4.608-1.248c-.192.48-.384 1.056-.768 1.44-.384.48-.864.768-1.344.96l.288-.288s0-.096.096-.096c0-.096.096-.096.096-.192.096-.096.192-.192.288-.384 0-.096.096-.192.192-.384 0-.096.096-.096.096-.192s.096-.096.096-.192 0-.096.096-.192v-.192c.096-.096.096-.192.192-.288.096-.288.384-.672.48-1.056.096-.192.096-.288.192-.48v-.192.192c.096.096.096.192.096.384 0 .288 0 .672-.096 1.152zm25.528-12.48c-.288-.288-.672-.288-.864.096-1.92 4.128-9.12 14.112-11.712 13.728-.864-.096-.672-3.936.096-8.544 4.608-1.728 5.568-5.76 5.568-5.76 1.344-5.472-2.784-5.76-2.784-5.76-7.968-.48-9.024 9.792-9.024 9.792C185.81 85.096 193.01 85 193.01 85c5.76.384 13.824-14.112 13.824-14.112.192-.768-.192-1.44-.48-1.92zm-9.504-4.512s1.248.576.96 2.784c0 0-.384 3.264-3.552 4.896.48-1.728 2.016-7.584 2.592-7.68zm-4.416 19.296H191.858c-.096 0-.192-.096-.192-.096h-.192c-.096-.096-.192-.096-.192-.096-.096 0-.192-.096-.192-.096-.288-.096-.48-.192-.576-.288-.192-.288-.48-.576-.576-.864-.096-.192-.096-.288-.096-.384-.096-.096-.096-.192-.096-.192l.096.096.192.192c.192.096.48.288.768.48.288.288.576.48.96.672.288.192.672.384.96.576h-.288zm-.096-18.24c-.192.096-.288.192-.384.288l-.096.096V65.8c0-.096.096-.192.096-.288.192-.288.384-.672.768-.96.288-.384.768-.576 1.344-.768.48-.192.96-.192 1.44-.096 0 0-.096 0-.288.096-.192.096-.384.192-.672.384-.096 0-.288.096-.384.192-.096.096-.288.096-.384.192-.096.096-.192.192-.288.192-.096.096-.192.096-.288.192-.192.096-.576.288-.864.576zm-2.304 20.352c-1.056.384-.48 1.44-.48 1.44 0 .384 1.344.672 1.728-.096.48-.864-.192-1.728-1.248-1.344zm7.296.096c-.768.672.192.96.48.672.192-.384-.288-.768-.48-.672zm25.038-16.992c-.192-.288-.576-.288-.768-.096-1.536 1.728-4.992 3.36-8.448 4.8-1.056-1.92-2.208-3.552-2.208-5.664-.192-4.512 2.112-4.32 2.112-4.32 2.208.288 2.208 3.168 2.112 4.416 0 .384.288.576.672.48.576-.288.959-.672 1.248-1.056.192-.192.288-.576.288-.864 0-5.76-4.416-5.28-4.416-5.28s-8.064-.288-8.832 8.256c0 0 0 3.936 2.496 7.392-1.44 1.344-1.824 2.304-1.824 2.304-1.824 4.128 1.92 5.856 1.92 5.856 2.88 1.248 5.664.096 6.72-1.056 2.688-2.496 1.536-6.528 1.536-6.528-.192-.768-.48-1.44-.768-2.016 5.856-2.016 8.064-4.8 8.064-4.8.48-.768.288-1.44.096-1.824zm-15.936-1.824c-.192.192-.288.384-.288.576l-.192.192s0-.288.096-.576c.096-.384.192-.864.48-1.44.192-.576.576-1.152 1.056-1.536.288-.288.576-.48.864-.672.288-.096.575-.192.864-.288 0 0 0 .096-.096.096 0 0 0 .096-.096.096l-.097.096c-.191.192-.479.384-.767.672l-.576.864c-.192.288-.384.576-.48.768-.192.288-.576.768-.768 1.152zm2.88 15.552c-.48.48-1.344.672-2.016.288-1.824-1.056-.288-3.072-.288-3.072.288-.48.672-.864 1.152-1.248.576.768 1.248 1.728 1.44 2.592 0 0 .288.96-.288 1.44zm4.608-1.248c-.192.48-.384 1.056-.768 1.44-.384.48-.864.768-1.344.96l.288-.288s0-.096.096-.096c0-.096.096-.096.096-.192.096-.096.192-.192.288-.384 0-.096.096-.192.192-.384 0-.096.096-.096.096-.192s.096-.096.096-.192 0-.096.096-.192v-.192c.096-.096.096-.192.192-.288.096-.288.384-.672.48-1.056.096-.192.096-.288.192-.48v-.192.192c.096.096.096.192.096.384 0 .288 0 .672-.096 1.152zm30.63.576c-.288 0-.48.576-.096.768.384.192 1.056-.576.096-.768zm-3.744.192c.672.384 1.824-.96.096-1.248-.48-.096-.864.96-.096 1.248zm-18.24-12.768c-.096-.192-.288-.288-.384-.192-.48.288-.864.768-1.152 1.152-.192.48-.192.96.096 1.44 4.416 5.664 9.504 5.28 9.504 5.28l-.672.864c-.576.96-.96 4.128-.96 4.128s1.344.288 2.208-.672c.864-.96.96-2.88.96-2.88s-.096.96 1.728 2.4 3.36.384 3.36.384c-.288-2.304-3.744-4.032-3.072-4.032.672.096 3.456.576 4.224.672.864.096.48-.384.576-1.056.192-.672 1.824-.768 1.824-.768s-.48 1.056-.768 1.824c-.288.768-.768 1.44-.768 1.728-.096.384 2.016-1.536 2.688-1.728.672-.192.576-.576.576-.576s.288-.192.672.48c.48.768.768.768 2.208 1.344 1.44.48 1.632.768 1.632.768 0-.48-1.056-1.632-1.056-1.632s1.44.768 2.592 1.248c1.248.48.48.096 1.536-.192.96-.288.96-.768 1.728-1.728.864-1.056.864-.768 1.536-1.536.576-.864.192-.672.192-1.728.096-.96.192-.768.48-2.112.192-1.248-.96-2.784-1.44-4.32-.384-1.536-2.112-2.4-2.592-2.784-.576-.288-1.056.96-1.92 1.632-.864.672-2.4 3.072-2.4 3.072l-.384-3.936c-1.248.672-2.209 4.32-2.209 5.856 0 1.632-2.495 2.688-2.495 2.688s-1.728.576-2.208.672c-2.016.48-6.816.768-6.528.576.192-.192.576-.288 3.264-1.44 2.688-1.056 4.992-7.584 4.992-7.584s-3.168 1.536-4.512 2.016c-1.344.384-3.073 3.552-3.456 4.704-.288 1.248-1.632 1.92-1.632 1.92-4.224 0-7.296-4.8-7.968-5.952z" fill="#A2414B"/></svg>