<svg width="62" height="73" viewBox="0 0 62 73" fill="none" xmlns="http://www.w3.org/2000/svg"><g filter="url(#filter0_d_1_39)"><path d="M5 17.0467L31 2l26 15.0467v30.9066L31 63 5 47.9533V17.0467zm26.0967-.0388l7.9564 30.2652c.0239.0912.1492.1015.1879.0155l7.0459-15.6735c.0418-.093-.066-.1815-.1491-.1226L36.946 38.01c-.0797.0566-.1849-.0231-.152-.1151l5.8115-16.2889c.037-.1038-.0966-.1824-.1694-.0995L31.0763 34.4464c-.0402.0459-.1117.0453-.1513-.0011L19.5722 21.1214c-.0721-.0845-.2077-.0061-.1703.0985l5.8027 16.2642c.0329.0924-.0731.1721-.1527.1147l-9.5918-6.9132c-.0831-.0598-.1918.029-.1496.1224l7.4484 16.4817c.0388.0858.1639.0753.1878-.0158l7.9566-30.266c.0261-.0994.1673-.0994.1934 0z" stroke="#000" stroke-width="2" shape-rendering="crispEdges"/></g><defs><filter id="filter0_d_1_39" x="0" y=".84462" width="62" height="71.3108" filterUnits="userSpaceOnUse" color-interpolation-filters="sRGB"><feFlood flood-opacity="0" result="BackgroundImageFix"/><feColorMatrix in="SourceAlpha" values="0 0 0 0 0 0 0 0 0 0 0 0 0 0 0 0 0 0 127 0" result="hardAlpha"/><feOffset dy="4"/><feGaussianBlur stdDeviation="2"/><feComposite in2="hardAlpha" operator="out"/><feColorMatrix values="0 0 0 0 0 0 0 0 0 0 0 0 0 0 0 0 0 0 0.25 0"/><feBlend in2="BackgroundImageFix" result="effect1_dropShadow_1_39"/><feBlend in="SourceGraphic" in2="effect1_dropShadow_1_39" result="shape"/></filter></defs></svg>