<svg width="54" height="65" viewBox="0 0 54 65" fill="none" xmlns="http://www.w3.org/2000/svg">
<path d="M1 17.0467L27 2L53 17.0467V47.9533L27 63L1 47.9533V17.0467ZM27.0967 17.0079L35.0531 47.2731C35.077 47.3643 35.2023 47.3746 35.241 47.2886L42.2869 31.6151C42.3287 31.5221 42.2209 31.4336 42.1378 31.4925L32.946 38.01C32.8663 38.0666 32.7611 37.9869 32.794 37.8949L38.6055 21.606C38.6425 21.5022 38.5089 21.4236 38.4361 21.5065L27.0763 34.4464C27.0361 34.4923 26.9646 34.4917 26.925 34.4453L15.5722 21.1214C15.5001 21.0369 15.3645 21.1153 15.4019 21.2199L21.2046 37.4841C21.2375 37.5765 21.1315 37.6562 21.0519 37.5988L11.4601 30.6856C11.377 30.6258 11.2683 30.7146 11.3105 30.808L18.7589 47.2897C18.7977 47.3755 18.9228 47.365 18.9467 47.2739L26.9033 17.0079C26.9294 16.9085 27.0706 16.9085 27.0967 17.0079Z" stroke="black" stroke-width="2"/>
</svg>
